<svg xmlns="http://www.w3.org/2000/svg" viewBox="0 0 170.54 47"><defs><style>.cls-1{fill:#344a5e;}.cls-2{fill:#77c3ae;}</style></defs><title>Asset 7</title><g id="Layer_2" data-name="Layer 2"><g id="Calque_1" data-name="Calque 1"><path class="cls-1" d="M27.29,21.51a1.22,1.22,0,1,0-.52-.77A1.21,1.21,0,0,0,27.29,21.51Z"/><path class="cls-2" d="M34,43a1.12,1.12,0,0,0-.86,0c-.48.2-1,.38-1.45.54A22.81,22.81,0,0,1,23,44.69a22.5,22.5,0,0,1-17.9-11c-1.49-2.54-5.85-11.39.73-18.73.19-.21.4-.42.63-.64a1.13,1.13,0,0,0-.73-2,1.11,1.11,0,0,0-.81.3c-.28.26-.54.52-.77.78-7.61,8.48-2.69,18.51-1,21.38a24.77,24.77,0,0,0,19.7,12.14c.54,0,1.08.05,1.63.05a25.43,25.43,0,0,0,7.92-1.29c.54-.18,1.08-.38,1.61-.59A1.13,1.13,0,0,0,34,43Z"/><path class="cls-2" d="M46.9,18.28A24.23,24.23,0,0,0,31.79,1.41C28.73.29,18.21-2.71,11.37,6.09a13.38,13.38,0,0,0-1.16,1.79,15.77,15.77,0,0,0-1.1,2.52,14.94,14.94,0,0,0-.79,4.86,22.9,22.9,0,0,0,.62,4.95,24.24,24.24,0,0,0,4.18,9,25.17,25.17,0,0,0,7.63,6.68,3.76,3.76,0,0,1,.26.48,4.75,4.75,0,0,0,.41.75,4.29,4.29,0,0,0,2,1.55,4.7,4.7,0,0,0,4.43-.57,4.31,4.31,0,0,0,1.62-2.14,9.72,9.72,0,0,0,.38-2.3A5,5,0,0,1,31.6,29.7,5.39,5.39,0,0,1,35,28.26a4,4,0,0,0,3.21-1.66,4.89,4.89,0,0,0,.28-5,4.71,4.71,0,0,0-1.72-1.76,6.14,6.14,0,0,0-.75-.37c-.37-.16-.46-.2-.6-.41a24.4,24.4,0,0,0-6.9-6.76,24,24,0,0,0-8.75-3.48A24.34,24.34,0,0,0,15,8.44a1.13,1.13,0,0,0,0,2.26,21.86,21.86,0,0,1,12.21,3.52,22.13,22.13,0,0,1,6.25,6.13,3.21,3.21,0,0,0,1.59,1.22,4.1,4.1,0,0,1,.48.23,2.44,2.44,0,0,1,.89.92,2.67,2.67,0,0,1-.23,2.69c-.22.36-.55.46-1.62.62A7.56,7.56,0,0,0,30,28.08a7.15,7.15,0,0,0-2.46,5.37,7.68,7.68,0,0,1-.28,1.79,2.14,2.14,0,0,1-.8,1,2.43,2.43,0,0,1-2.28.28,2,2,0,0,1-1-.75,3.46,3.46,0,0,1-.21-.4,3,3,0,0,0-1.13-1.45,22.94,22.94,0,0,1-7-6.1,22,22,0,0,1-3.78-8.13,20.64,20.64,0,0,1-.56-4.46,12.66,12.66,0,0,1,.68-4.11A13.47,13.47,0,0,1,12.19,9a11.21,11.21,0,0,1,1-1.49C19.05-.12,28.32,2.54,31,3.53a22,22,0,0,1,13.7,15.3,22.31,22.31,0,0,1,.42,8.55,21.48,21.48,0,0,1-1.93,6.37,21.73,21.73,0,0,1-1.79,3.07A12.88,12.88,0,0,1,40.49,38l0,.06C39.3,39.33,38,40,37,39.93S34.72,38.84,33.69,37a3.6,3.6,0,0,1-.47-1.36,5.72,5.72,0,0,1,1.86,1.78A1.13,1.13,0,1,0,37,36.2,7.45,7.45,0,0,0,32.73,33a1.12,1.12,0,0,0-1.24.49,4.47,4.47,0,0,0,.24,4.62c1.42,2.48,3.1,3.84,5,4l.44,0a6.85,6.85,0,0,0,5-2.71l0,0a15.15,15.15,0,0,0,1.07-1.34,24,24,0,0,0,2-3.39,23.74,23.74,0,0,0,2.14-7A24.56,24.56,0,0,0,46.9,18.28Z"/><path class="cls-2" d="M64.54,17.81v1h3.75V22H64.54V34.24H60.18V22H58.36V18.85h1.82v-1a5.2,5.2,0,0,1,5.39-5.52,6,6,0,0,1,4.17,1.73L68.18,17a2.77,2.77,0,0,0-2.11-1.1,1.42,1.42,0,0,0-1.1.48A2,2,0,0,0,64.54,17.81Z"/><path class="cls-2" d="M71.34,16.73a2.58,2.58,0,1,1,1.8.74A2.45,2.45,0,0,1,71.34,16.73Zm4,17.51H71V18.71h4.33Z"/><path class="cls-2" d="M90.06,29.41a4.52,4.52,0,0,1-1.69,3.68,6.54,6.54,0,0,1-4.29,1.39,11.48,11.48,0,0,1-3.61-.62A10.65,10.65,0,0,1,77.09,32L79,29.31a8.3,8.3,0,0,0,5.17,1.88,2.34,2.34,0,0,0,1.33-.33A1,1,0,0,0,86,30a1.27,1.27,0,0,0-.68-1,7.69,7.69,0,0,0-2-.87q-1.29-.4-2-.69a11,11,0,0,1-1.54-.84,3.58,3.58,0,0,1-1.76-3.25,4.26,4.26,0,0,1,1.73-3.51,7,7,0,0,1,4.48-1.36,9.77,9.77,0,0,1,5.49,1.85l-1.62,2.89a7.09,7.09,0,0,0-4-1.39q-2,0-2,1.1a1.06,1.06,0,0,0,.64,1,12.82,12.82,0,0,0,2.11.81q1.47.46,2.09.71a10.56,10.56,0,0,1,1.49.77A3.53,3.53,0,0,1,90.06,29.41Z"/><path class="cls-2" d="M96.66,25.87v8.37H92.33V12.82h4.33v7.62a6,6,0,0,1,4.4-2,5.5,5.5,0,0,1,4.11,1.73,6.37,6.37,0,0,1,1.67,4.62v9.44h-4.33V25.76q0-3.58-2.63-3.58a3.15,3.15,0,0,0-2.27.94A3.67,3.67,0,0,0,96.66,25.87Z"/><path class="cls-1" d="M116.3,21.83v7a2,2,0,0,0,.46,1.4,1.44,1.44,0,0,0,1.1.51,2.5,2.5,0,0,0,2.05-1.1l1.62,3a6.25,6.25,0,0,1-4.26,1.85A5.17,5.17,0,0,1,111.94,29V21.83h-3.21V18.71h3.21V14.06h4.36v4.65h3.75l-1.55,3.12Z"/><path class="cls-1" d="M132,22.52a3.28,3.28,0,0,0-2.89,1.37,6.23,6.23,0,0,0-1,3.62v6.73h-4.33V18.71h4.33v2a7.28,7.28,0,0,1,2.09-1.62,5.69,5.69,0,0,1,2.56-.69l0,4.07Z"/><path class="cls-1" d="M136.06,16.73a2.58,2.58,0,1,1,1.8.74A2.45,2.45,0,0,1,136.06,16.73Zm4,17.51H135.7V18.71H140Z"/><path class="cls-1" d="M152,18.45a6.47,6.47,0,0,1,4.84,2.27,8,8,0,0,1,2.12,5.7,8.17,8.17,0,0,1-2.12,5.75,6.55,6.55,0,0,1-5,2.31,5.47,5.47,0,0,1-4.58-2.28v7.65H143V18.71h4.33v1.73A6.43,6.43,0,0,1,152,18.45Zm-4.76,8a4.5,4.5,0,0,0,1.05,3.09,3.28,3.28,0,0,0,2.56,1.2,3.5,3.5,0,0,0,2.63-1.2,4.31,4.31,0,0,0,1.13-3.07,4.65,4.65,0,0,0-1.1-3.15,3.36,3.36,0,0,0-2.63-1.27,3.25,3.25,0,0,0-2.58,1.26A4.73,4.73,0,0,0,147.27,26.49Z"/><path class="cls-1" d="M169.7,22.52a3.28,3.28,0,0,0-2.89,1.37,6.23,6.23,0,0,0-1,3.62v6.73h-4.33V18.71h4.33v2A7.28,7.28,0,0,1,168,19.14a5.69,5.69,0,0,1,2.56-.69l0,4.07Z"/></g></g></svg>